<?xml version="1.0" encoding="UTF-8" standalone="no"?>
<svg
   width="808.25098"
   height="785.77191"
   viewBox="0 0 808.25098 785.77191"
   version="1.1"
   xml:space="preserve"
   style="clip-rule:evenodd;fill-rule:evenodd;stroke-linecap:round;stroke-linejoin:round;stroke-miterlimit:1.5"
   id="svg65"
   sodipodi:docname="icon.svg"
   inkscape:version="1.4 (86a8ad7, 2024-10-11)"
   xmlns:inkscape="http://www.inkscape.org/namespaces/inkscape"
   xmlns:sodipodi="http://sodipodi.sourceforge.net/DTD/sodipodi-0.dtd"
   xmlns="http://www.w3.org/2000/svg"
   xmlns:svg="http://www.w3.org/2000/svg"><defs
   id="defs65" /><sodipodi:namedview
   id="namedview65"
   pagecolor="#ffffff"
   bordercolor="#000000"
   borderopacity="0.25"
   inkscape:showpageshadow="2"
   inkscape:pageopacity="0.0"
   inkscape:pagecheckerboard="0"
   inkscape:deskcolor="#d1d1d1"
   inkscape:zoom="0.44573328"
   inkscape:cx="550.77781"
   inkscape:cy="361.20256"
   inkscape:window-width="1600"
   inkscape:window-height="930"
   inkscape:window-x="-6"
   inkscape:window-y="-6"
   inkscape:window-maximized="1"
   inkscape:current-layer="g64" />
    <g
   transform="translate(-1349.8075,-736.95711)"
   id="g65">
        <g
   id="g64">
            
            <g
   transform="rotate(30.000012,1753.9226,1132.8105)"
   id="g13">
                <path
   d="M 1407.35,1331.56 V 934.289 c 0.94,0.065 1.89,0.127 2.84,0.185 l 0.04,0.027 c 0,-0.009 -0.01,-0.017 -0.01,-0.026 -0.56,-0.832 -1.11,-1.663 -1.67,-2.491 l 344.06,-198.642 c 1.31,-0.726 1.32,-0.756 1.32,-0.756 v 0.061 l 0.02,-0.031 c 0,0 0.02,0.028 1.31,0.726 l 344.06,198.642 c -0.55,0.824 -1.11,1.651 -1.66,2.48 l -0.02,0.012 c 0.01,0 0.01,0 0.02,-10e-4 0.93,-0.057 1.87,-0.117 2.8,-0.182 l 0.13,397.267 c -0.98,-0.07 -1.95,-0.13 -2.93,-0.19 -0.01,0 -0.01,0 -0.01,0 l 0.01,0.01 c 0.51,0.76 1.02,1.52 1.52,2.28 l -344.03,198.62 c -0.4,-0.82 -0.8,-1.64 -1.21,-2.46 -0.01,-0.01 -0.01,-0.01 -0.01,-0.02 v 0.03 c -0.41,0.82 -0.81,1.63 -1.21,2.45 l -344.03,-198.62 c 0.51,-0.76 1.02,-1.52 1.52,-2.28 l 0.01,-0.01 c 0,0 0,0 0,0 -0.96,0.06 -1.92,0.12 -2.87,0.19 z m 153.22,-310 c 0.16,0 0.31,0.01 0.47,0.01 l -0.7,-0.4 c 0.08,0.13 0.16,0.26 0.23,0.39 z m 193.35,-111.644 v 0.053 c 0.01,-0.009 0.01,-0.018 0.02,-0.027 -0.01,-0.009 -0.01,-0.017 -0.02,-0.026 z m 193.63,111.214 -0.8,0.46 c 0.18,0 0.36,0 0.54,0 0.08,-0.15 0.17,-0.31 0.26,-0.46 z m 0.26,223.73 -0.81,-0.47 c 0.09,0.16 0.18,0.31 0.27,0.47 0.18,0 0.36,0 0.54,0 z m -387.25,-0.03 c 0.07,-0.13 0.15,-0.26 0.23,-0.39 l -0.68,0.39 c 0.15,0 0.3,0 0.45,0 z m 193.37,111.69 v -0.09 c -0.01,0.02 -0.02,0.03 -0.02,0.05 0,0.01 0.01,0.03 0.02,0.04 z m -1.19,-223.99 c 0.08,0.13 0.16,0.27 0.24,0.4 0.05,0.09 0.11,0.19 0.16,0.28 -0.05,0.09 -0.1,0.18 -0.16,0.27 l -0.72,0.41 c 0.16,0 0.32,0 0.48,0 0.21,0 0.42,0 0.64,0 0.05,0 0.1,0 0.15,0 0.13,0.23 0.26,0.45 0.39,0.68 0,0.01 0.01,0.01 0.01,0.02 v -0.03 c 0.13,-0.23 0.26,-0.45 0.38,-0.67 0.06,0 0.12,0 0.18,0 0.2,0 0.41,0 0.61,0 0.17,0 0.34,0 0.51,0 l -0.76,-0.44 c -0.05,-0.08 -0.1,-0.16 -0.15,-0.24 0.06,-0.1 0.12,-0.19 0.17,-0.29 0.08,-0.13 0.16,-0.26 0.23,-0.39 0.09,-0.15 0.17,-0.29 0.25,-0.43 l -0.75,0.43 c -0.09,0 -0.19,0 -0.29,0 -0.02,-0.05 -0.05,-0.09 -0.08,-0.14 -0.1,-0.18 -0.2,-0.36 -0.31,-0.54 -0.1,0.18 -0.2,0.36 -0.31,0.54 -0.03,0.05 -0.05,0.09 -0.08,0.14 -0.1,0 -0.2,0 -0.3,0 l -0.74,-0.42 c 0.09,0.14 0.17,0.28 0.25,0.42 z"
   style="stroke:#000000;stroke-width:9.2px"
   id="path13" />
            </g>
            <g
   transform="rotate(30.000012,1753.9226,1132.8105)"
   id="g14">
                <path
   d="m 1410.23,934.501 -0.01,-0.026 c 39.95,2.442 80.57,-1.744 120.13,-13.016 27.9,-7.948 55.27,-19.418 81.52,-34.572 0.01,-0.002 0.01,-0.005 0.01,-0.008 26.18,-15.113 49.74,-33.024 70.53,-53.139 29.62,-28.661 53.61,-61.796 71.51,-97.681 l 0.02,-0.031 c 17.9,35.902 41.9,69.05 71.53,97.721 20.79,20.109 44.34,38.015 70.51,53.125 0,0.002 0.01,0.003 0.01,0.005 26.25,15.158 53.63,26.631 81.53,34.58 39.56,11.271 80.17,15.457 120.12,13.017 l 0.02,-10e-4 c -22.15,33.463 -38.86,70.835 -48.87,110.845 -7.02,28.05 -10.75,57.39 -10.75,87.6 0,30.41 3.78,59.94 10.88,88.15 10.03,39.8 26.69,76.99 48.74,110.3 h -0.01 c -39.98,-2.44 -80.61,1.75 -120.19,13.03 -27.88,7.95 -55.24,19.42 -81.47,34.57 0,0 0,0 -0.01,0 -26.32,15.2 -50.01,33.23 -70.88,53.49 -29.47,28.59 -53.34,61.61 -71.16,97.36 l -0.01,-0.02 c -17.83,-35.75 -41.71,-68.78 -71.19,-97.37 -20.87,-20.25 -44.54,-38.27 -70.86,-53.46 0,-0.01 0,-0.01 0,-0.01 -26.25,-15.15 -53.63,-26.62 -81.52,-34.57 -39.57,-11.27 -80.18,-15.46 -120.14,-13.02 v 0 c 22.05,-33.32 38.71,-70.51 48.73,-110.32 7.11,-28.2 10.88,-57.72 10.88,-88.12 0,0 0,0 0,-0.01 0,-30.22 -3.73,-59.58 -10.75,-87.64 -10.02,-39.99 -26.72,-77.335 -48.85,-110.779 z m 150.34,87.059 c 0.16,0 0.31,0.01 0.47,0.01 l -0.7,-0.4 c 0.08,0.13 0.16,0.26 0.23,0.39 z m 193.35,-111.644 v 0.053 l 0.02,-0.027 z m 193.63,111.214 -0.8,0.46 c 0.18,0 0.36,0 0.54,0 0.08,-0.15 0.17,-0.31 0.26,-0.46 z m 0.26,223.73 -0.81,-0.47 c 0.09,0.16 0.18,0.31 0.27,0.47 0.18,0 0.36,0 0.54,0 z m -387.25,-0.03 c 0.07,-0.13 0.15,-0.26 0.23,-0.39 l -0.68,0.39 c 0.15,0 0.3,0 0.45,0 z m 193.37,111.69 v -0.09 l -0.02,0.05 z m -1.19,-223.99 c 0.08,0.13 0.16,0.27 0.24,0.4 0.05,0.09 0.11,0.19 0.16,0.28 -0.05,0.09 -0.1,0.18 -0.16,0.27 l -0.72,0.41 c 0.16,0 0.32,0 0.48,0 0.21,0 0.42,0 0.64,0 0.05,0 0.1,0 0.15,0 0.13,0.23 0.26,0.45 0.39,0.68 l 0.01,0.02 v -0.03 c 0.13,-0.23 0.26,-0.45 0.38,-0.67 0.06,0 0.12,0 0.18,0 0.2,0 0.41,0 0.61,0 0.17,0 0.34,0 0.51,0 l -0.76,-0.44 c -0.05,-0.08 -0.1,-0.16 -0.15,-0.24 0.06,-0.1 0.12,-0.19 0.17,-0.29 0.08,-0.13 0.16,-0.26 0.23,-0.39 0.09,-0.15 0.17,-0.29 0.25,-0.43 l -0.75,0.43 c -0.09,0 -0.19,0 -0.29,0 -0.02,-0.05 -0.05,-0.09 -0.08,-0.14 -0.1,-0.18 -0.2,-0.36 -0.31,-0.54 -0.1,0.18 -0.2,0.36 -0.31,0.54 -0.03,0.05 -0.05,0.09 -0.08,0.14 -0.1,0 -0.2,0 -0.3,0 l -0.74,-0.42 c 0.09,0.14 0.17,0.28 0.25,0.42 z"
   style="fill:#ffffff;stroke:#ffffff;stroke-width:9.2px"
   id="path14" />
            </g>
            
            <g
   transform="rotate(30.000012,1758.4482,1124.9718)"
   id="g63">
                <path
   d="m 1559.93,796.932 c 21.88,0.025 43.92,3.258 65.41,9.89 15.74,4.857 31.17,11.538 46.03,20.116 3.77,2.176 7.45,4.444 11.04,6.802 30.42,19.962 54.51,46.284 71.51,76.176 v 0.053 c -37.83,66.53 -40.57,150.741 0,221.881 -0.1,0.18 -0.2,0.36 -0.31,0.54 -0.03,0.05 -0.05,0.09 -0.08,0.14 -0.1,0 -0.2,0 -0.3,0 l -0.74,-0.42 c 0.09,0.14 0.17,0.28 0.25,0.42 -81.91,-0.43 -153.47,-44.92 -192.17,-110.97 0.16,0 0.31,0.01 0.47,0.01 l -0.7,-0.4 c -17.26,-29.604 -27.93,-63.513 -29.99,-99.711 -0.24,-4.261 -0.36,-8.554 -0.36,-12.876 0,-17.165 1.93,-33.881 5.6,-49.943 5.01,-21.971 13.26,-42.717 24.21,-61.708 0.05,0 0.09,0 0.13,0 z"
   style="fill:#ffffff;stroke:#000000;stroke-width:32;stroke-dasharray:none"
   id="path58" />
                <path
   d="m 1948.09,796.958 c 10.94,18.984 19.19,39.721 24.2,61.682 3.66,16.062 5.59,32.778 5.59,49.943 0,4.322 -0.12,8.615 -0.36,12.876 -2.05,36.184 -12.72,70.081 -29.97,99.671 l -0.8,0.46 c -76.2,0.67 -150.12,40.22 -191.4,110.51 l -0.75,0.43 c -0.09,0 -0.19,0 -0.29,0 -0.02,-0.05 -0.05,-0.09 -0.08,-0.14 -0.1,-0.18 -0.2,-0.36 -0.31,-0.54 -40.57,-71.14 -37.83,-155.351 0,-221.881 l 0.02,-0.027 c 17,-29.9 41.1,-56.228 71.53,-76.193 3.59,-2.351 7.26,-4.614 11.02,-6.784 14.87,-8.586 30.32,-15.271 46.07,-20.129 21.46,-6.621 43.48,-9.85 65.33,-9.878 0.07,0 0.13,0 0.2,0 z"
   style="fill:#ffffff;stroke:#000000;stroke-width:32;stroke-dasharray:none"
   id="path59" />
                <path
   d="m 2142.21,1133.24 c -11.05,19.1 -25,36.72 -41.67,52.11 -11.99,11.08 -25.38,21 -40.1,29.5 -3.8,2.2 -7.64,4.27 -11.52,6.22 -32.31,16.25 -66.92,23.93 -101.11,23.79 l -0.81,-0.47 c -38.68,-65.65 -109.89,-109.89 -191.39,-110.5 l -0.76,-0.44 c -0.05,-0.08 -0.1,-0.16 -0.15,-0.24 0.06,-0.1 0.12,-0.19 0.17,-0.29 0.08,-0.13 0.16,-0.26 0.23,-0.39 0.09,-0.15 0.17,-0.29 0.25,-0.43 41.28,-70.29 115.2,-109.84 191.4,-110.51 0.18,0 0.36,0 0.54,0 34.31,-0.22 69.06,7.44 101.5,23.73 3.91,1.96 7.79,4.05 11.63,6.27 14.72,8.5 28.1,18.42 40.09,29.48 16.59,15.33 30.49,32.85 41.52,51.85 0.06,0.11 0.12,0.21 0.18,0.32 z"
   style="fill:#ffffff;stroke:#000000;stroke-width:32;stroke-dasharray:none"
   id="path60" />
                <path
   d="m 1948.04,1469.49 c -22.24,-0.01 -44.65,-3.34 -66.48,-10.19 -15.41,-4.83 -30.53,-11.41 -45.09,-19.82 -3.88,-2.24 -7.67,-4.58 -11.37,-7.02 -30.26,-19.93 -54.23,-46.16 -71.17,-75.94 v -0.09 c 37.82,-66.52 40.57,-150.71 0,-221.84 v -0.03 c 0.13,-0.23 0.26,-0.45 0.38,-0.67 0.06,0 0.12,0 0.18,0 0.2,0 0.41,0 0.61,0 0.17,0 0.34,0 0.51,0 81.5,0.61 152.71,44.85 191.39,110.5 0.09,0.16 0.18,0.31 0.27,0.47 17.31,29.54 28.05,63.39 30.19,99.54 0.26,4.45 0.4,8.93 0.4,13.44 0,16.82 -1.86,33.21 -5.39,48.98 -4.97,22.26 -13.26,43.27 -24.33,62.49 -0.03,0.06 -0.06,0.12 -0.1,0.18 z"
   style="fill:#ffffff;stroke:#000000;stroke-width:32;stroke-dasharray:none"
   id="path61" />
                <path
   d="m 1559.69,1469.35 c -11.08,-19.24 -19.38,-40.28 -24.36,-62.57 -3.52,-15.76 -5.37,-32.14 -5.37,-48.94 0,-4.52 0.13,-9 0.4,-13.45 2.14,-36.16 12.88,-70.01 30.2,-99.56 76.54,-0.49 150.86,-40.22 192.18,-110.94 0.21,0 0.42,0 0.64,0 0.05,0 0.1,0 0.15,0 0.13,0.23 0.26,0.45 0.39,0.68 l 0.01,0.02 c 40.57,71.13 37.82,155.32 0,221.84 l -0.02,0.05 c -16.94,29.78 -40.91,56.01 -71.17,75.95 -3.7,2.44 -7.49,4.78 -11.38,7.02 -14.57,8.41 -29.68,15 -45.09,19.83 -21.84,6.84 -44.26,10.17 -66.51,10.18 -0.02,-0.03 -0.04,-0.07 -0.07,-0.11 z"
   style="fill:#ffffff;stroke:#000000;stroke-width:32;stroke-dasharray:none"
   id="path62" />
                <path
   d="m 1365.78,1132.93 c 11.03,-19.02 24.96,-36.57 41.57,-51.91 11.98,-11.06 25.35,-20.97 40.06,-29.45 3.85,-2.23 7.74,-4.32 11.67,-6.29 32.43,-16.29 67.19,-23.94 101.49,-23.72 38.7,66.05 110.26,110.54 192.17,110.97 0.08,0.13 0.16,0.27 0.24,0.4 0.05,0.09 0.11,0.19 0.16,0.28 -0.05,0.09 -0.1,0.18 -0.16,0.27 l -0.72,0.41 c 0.16,0 0.32,0 0.48,0 -41.32,70.72 -115.64,110.45 -192.18,110.94 0.07,-0.13 0.15,-0.26 0.23,-0.39 l -0.68,0.39 c -34.2,0.15 -68.83,-7.53 -101.16,-23.78 -3.87,-1.95 -7.72,-4.02 -11.53,-6.22 -14.71,-8.49 -28.09,-18.41 -40.07,-29.47 -16.69,-15.41 -30.66,-33.05 -41.71,-52.18 0.04,-0.08 0.09,-0.16 0.14,-0.25 z"
   style="fill:#ffffff;stroke:#000000;stroke-width:32;stroke-dasharray:none"
   id="path63" />
            </g>
        </g>
    </g>
</svg>
