<?xml version="1.0" encoding="UTF-8" standalone="no"?>
<!-- Created with Inkscape (http://www.inkscape.org/) -->

<svg
   width="60.71365mm"
   height="9.4496984mm"
   viewBox="0 0 60.71365 9.4496984"
   version="1.1"
   id="svg1"
   xmlns="http://www.w3.org/2000/svg"
   xmlns:svg="http://www.w3.org/2000/svg">
  <defs
     id="defs1" />
  <g
     id="layer1"
     transform="translate(-64.045343,-117.10168)">
    <path
       style="font-size:12.7px;font-family:Shatter;-inkscape-font-specification:Shatter;fill:#ffffff;stroke:#000000;stroke-width:0.264583;stroke-opacity:1"
       d="m 64.174707,124.8853 1.3081,-1.8669 -0.6731,3.0861 1.143,-0.2159 1.0414,-4.6736 0.1143,3.9243 0.8636,-1.1049 v 2.0955 l 1.1684,-0.2159 2.222499,-4.953 -0.647699,3.0099 q -0.0635,0.2794 -0.1524,0.6096 -0.0762,0.3302 -0.1524,0.6096 l -0.0508,0.1524 1.689099,-2.7432 -0.0635,0.2032 -0.1524,0.5207 q -0.0635,0.1778 -0.1143,0.381 -0.0381,0.2032 -0.1016,0.4318 l -0.4699,2.0066 1.1684,-0.2032 1.397,-5.8547 -1.6129,2.4003 0.9271,-4.0386 -1.4097,0.2794 0.2667,-0.762 -1.371599,0.2667 -2.286,5.2578 -0.0762,-4.3815 -0.8128,1.1049 q 0.0127,-0.127 0.0127,-0.1905 0,-0.0762 0,-0.1524 0,-0.1016 0,-0.2032 0,-0.1016 -0.0127,-0.2032 l -0.0127,-0.1651 -0.0508,-1.0922 -1.7399,0.3302 z m 0.127,-4.9403 q 0.4064,-0.4572 0.7747,-1.0033 0.3683,-0.5461 0.6985,-1.1557 l -1.1049,0.2794 z m 1.4986,2.5527 0.4064,-1.8034 0.0635,1.0922 z m 3.2385,1.4097 -0.0127,-1.2192 -0.2921,0.1524 0.0889,-0.127 q 0.4572,-0.7239 0.9906,-1.4732 0.5461,-0.762 1.143,-1.5113 z m 5.194298,2.2098 1.2446,-0.2667 0.6477,-1.5494 1.3335,-0.3048 -0.4191,0.7493 1.9304,-0.4318 0.1397,1.3589 0.3556,-0.0889 0.2667,-0.508 0.1143,1.1176 1.2954,-0.2794 -0.2921,-2.5019 -0.6096,0.889 -0.4572,-3.9497 -0.6223,0.9017 -0.3302,-2.8829 -1.0668,0.2286 0.2921,-0.4699 -0.0508,-0.2413 -1.2446,0.2794 -1.6002,3.6068 -0.0889,0.1778 -0.5334,1.1684 q -0.1397,0.2921 -0.3556,0.7493 -0.2032,0.4445 -0.381,0.8128 -0.1397,0.2921 -0.2159,0.4445 -0.0762,0.1524 -0.2032,0.3937 h 0.0635 l 3.4798,-5.5372 z m 3.8481,-3.3655 -1.4478,0.3302 1.27,-2.9845 z m 0.7874,0.4826 -1.0795,0.2413 0.9525,-1.5367 z m 3.251195,2.4003 1.1811,-0.2032 0.5334,-2.7559 q 0.3683,-0.1016 0.635,-0.1397 0.2794,-0.0508 0.4191,-0.0508 0.1651,0 0.2667,0.0381 0.1016,0.0381 0.2032,0.1397 l -0.2667,0.4445 q 0.1905,-0.1143 0.3175,-0.1524 0.1397,-0.0381 0.2921,-0.0381 0.3048,0 0.4826,0.1778 0.1778,0.1778 0.1778,0.4826 0,0.1016 -0.0127,0.254 -0.0127,0.1397 -0.0381,0.2921 -0.0508,0.3302 -0.0762,0.5715 -0.0127,0.2413 -0.0127,0.381 0,0.1016 0,0.1651 0,0.0635 0.0254,0.2032 l 0.4953,-0.1143 0.5969,-1.0287 q 0.2286,-0.762 0.2286,-1.2446 0,-0.3302 -0.127,-0.5334 -0.1143,-0.2032 -0.4445,-0.381 0.6731,-0.4953 0.9652,-1.0287 0.3048,-0.5334 0.3048,-1.2192 0,-0.3683 -0.1016,-0.5969 -0.0889,-0.2413 -0.3429,-0.4826 l -0.2667,0.3937 q -0.2413,-0.9779 -1.0922,-0.9779 -0.1143,0 -0.2413,0.0127 -0.127,0.0127 -0.2667,0.0381 l -0.9906,0.2159 0.381,-0.6985 -2.7432,0.5207 -1.0414,5.6642 1.1684,-1.7399 z m 6.1976,-2.7813 -0.889,1.3462 q -0.1397,0.2921 -0.1905,0.4318 -0.0508,0.127 -0.0889,0.2413 -0.0762,0.2159 -0.1143,0.4318 -0.0381,0.2032 -0.0381,0.3683 0,0.0635 0,0.1143 0,0.0381 0.0127,0.127 l 1.1938,-0.2794 q -0.0381,-0.2032 -0.0381,-0.3048 0,-0.1016 0.0127,-0.254 0.0254,-0.1651 0.0762,-0.5715 0.0381,-0.3683 0.0635,-0.6731 0.0254,-0.3048 0.0254,-0.5588 0,-0.0635 -0.0127,-0.1651 0,-0.1143 -0.0127,-0.254 z m -3.7973,1.1811 -0.9906,1.6637 -0.0889,0.3683 0.635,-0.2159 z m -0.9525,-4.7625 1.1049,-0.2159 -1.4986,2.5019 z m 0.8255,0.4699 0.9906,-0.2413 q 0.1143,-0.0254 0.2159,-0.0381 0.1143,-0.0127 0.2159,-0.0127 0.4953,0 0.4953,0.6096 0,0.4445 -0.2794,0.7747 -0.2794,0.3302 -0.7239,0.4318 l -1.27,0.2667 z m 2.6289,0.2667 q 0.0635,0.1397 0.0762,0.2286 0.0254,0.0889 0.0254,0.2032 0,0.2921 -0.1524,0.5715 -0.1397,0.2794 -0.381,0.4572 -0.1397,0.1016 -0.2794,0.1651 -0.1397,0.0508 -0.4064,0.1397 z m 9.372606,3.6068 -1.2065,0.1016 q -0.4064,0.6731 -0.8509,0.9652 -0.4445,0.2794 -1.0541,0.2794 l 0.4826,-0.8255 q -0.254,0.1778 -0.4699,0.2667 -0.2159,0.0762 -0.4572,0.0762 -0.4572,0 -0.7493,-0.3937 -0.2921,-0.4064 -0.2921,-1.0541 0,-0.0254 0,-0.0635 0.0127,-0.0508 0.0127,-0.1143 l -0.5715,0.8001 q -0.1016,-0.254 -0.1397,-0.4572 -0.0254,-0.2159 -0.0254,-0.5207 0,-0.6604 0.1905,-1.2954 0.2032,-0.635 0.5207,-1.1303 0.3302,-0.508 0.7366,-0.8128 0.4191,-0.3048 0.8382,-0.3048 0.3302,0 0.6096,0.2413 l -0.127,0.2286 q 0.2032,-0.0381 0.3048,-0.0381 0.5207,0 0.7747,0.4953 0.0635,0.1397 0.1016,0.3175 0.0381,0.1651 0.0635,0.5334 l 0.6477,-0.127 q 0.0635,0.1397 0.1016,0.2794 0.0381,0.127 0.0635,0.4064 l 1.2065,-0.1397 v -0.2159 q 0,-0.4953 -0.0635,-0.8382 -0.0635,-0.3556 -0.2286,-0.7366 l -0.5461,0.6731 q 0,-0.889 -0.4445,-1.3843 -0.4318,-0.508 -1.2192,-0.508 h -0.0762 l 0.1143,-0.2921 q -0.2286,-0.0762 -0.3937,-0.1016 -0.1651,-0.0381 -0.381,-0.0381 -0.762,0 -1.4859,0.4191 -0.7112,0.4191 -1.27,1.1176 -0.5461,0.6985 -0.889,1.6002 -0.3302,0.9017 -0.3302,1.8542 0,0.5334 0.1016,0.9906 0.1016,0.4445 0.3429,0.9779 l 0.3556,-0.4318 q 0.4699,1.2954 1.5367,1.2954 0.1778,0 0.3302,-0.0254 0.1651,-0.0381 0.4064,-0.1397 l -0.2921,0.5842 q 0.0635,0.0127 0.1143,0.0127 0.0635,0 0.0889,0 1.143,0 2.0447,-0.6477 0.9017,-0.6477 1.4732,-1.8796 z m -7.4803,-1.3081 q 0.2667,-0.3302 0.5207,-0.6858 0.254,-0.3683 0.635,-0.9271 0.3048,-0.4445 0.5461,-0.8255 0.2413,-0.3937 0.4572,-0.7493 0.2159,-0.3556 0.3937,-0.6985 0.1905,-0.3556 0.381,-0.7366 l 0.1143,-0.2032 q -0.7239,0.4445 -1.2446,0.9779 -0.508,0.5334 -0.8763,1.1811 -0.2921,0.508 -0.5461,1.2319 -0.2413,0.7112 -0.381,1.4351 z m 8.775692,1.3589 q -0.0254,0.1524 -0.0254,0.254 0,0.1016 0,0.2032 0,0.6096 0.2159,0.9398 0.2286,0.3302 0.7493,0.4699 0.2921,0.3048 0.5842,0.4445 0.3048,0.127 0.6858,0.127 0.368302,0 0.749302,-0.1397 0.381,-0.1397 0.9525,-0.4826 l -0.4953,0.9017 q 0.5461,-0.0762 0.889,-0.1905 0.3556,-0.127 0.6858,-0.3429 0.3175,-0.2159 0.5715,-0.508 0.2667,-0.2921 0.4572,-0.6223 0.1905,-0.3429 0.2921,-0.6985 0.1143,-0.3683 0.1143,-0.7112 0,-0.3048 -0.1016,-0.5461 -0.0889,-0.2413 -0.3175,-0.5461 l -0.4191,0.5588 q 0.0127,-0.0635 0.0127,-0.127 0,-0.0635 0,-0.0889 0,-0.5715 -0.4953,-0.8128 -0.1016,-0.0508 -0.2286,-0.0889 -0.1143,-0.0381 -0.2921,-0.0762 -0.1651,-0.0381 -0.4064,-0.0635 -0.2286,-0.0254 -0.5715,-0.0635 l -0.1524,-0.0127 0.1905,-0.3429 h -0.2413 q -0.5207,-0.0127 -0.762,-0.0381 -0.2413,-0.0254 -0.381002,-0.0889 -0.1397,-0.0635 -0.2286,-0.1905 -0.0762,-0.1397 -0.0762,-0.2794 0,-0.1905 0.127,-0.3937 0.1397,-0.2032 0.342902,-0.3556 0.2159,-0.1651 0.4826,-0.2667 0.2667,-0.1016 0.5207,-0.1016 0.6477,0 0.6604,0.7874 l 0.2286,-0.1143 0.1524,-0.2286 q 0.2159,0.1524 0.2921,0.3429 0.0889,0.1778 0.1016,0.5334 l 1.1684,-0.2667 q 0.0127,-0.1397 0.0127,-0.2286 0.0127,-0.0889 0.0127,-0.1778 0,-0.9652 -0.8001,-1.3589 l -0.1524,0.2286 q -0.2286,-0.7747 -1.1176,-0.7747 -0.7112,0 -1.6129,0.4318 l 0.4826,-0.9525 -0.2286,0.0762 q -0.368302,0.127 -0.647702,0.254 -0.2794,0.1143 -0.508,0.254 -0.2159,0.127 -0.4064,0.2794 -0.1778,0.1524 -0.3429,0.3429 -0.3683,0.4064 -0.5969,0.9271 -0.2159,0.5207 -0.2159,1.0033 0,0.3048 0.0889,0.5334 0.1016,0.2159 0.3175,0.4699 l 0.3429,-0.4191 q 0.0508,0.3302 0.1651,0.5588 0.127,0.2159 0.3429,0.3556 0.2159,0.127 0.5588,0.1778 0.3556,0.0508 0.863602,0.0508 h 0.2794 l -0.2032,0.4064 q 0.5207,0.0508 0.8509,0.1016 0.3302,0.0508 0.508,0.127 0.1905,0.0762 0.254,0.1905 0.0635,0.1016 0.0635,0.2667 0,0.254 -0.1397,0.4826 -0.127,0.2286 -0.3556,0.4191 -0.2159,0.1778 -0.508,0.2921 -0.2921,0.1016 -0.5969,0.1016 -0.3683,0 -0.571502,-0.1778 -0.1905,-0.1778 -0.254,-0.5588 l -0.127,0.2159 h -0.127 q -0.4826,0 -0.4826,-0.7239 v -0.254 z m 2.1717,-4.7371 -0.9525,1.5621 q -0.0508,-0.127 -0.0635,-0.1905 -0.0127,-0.0762 -0.0127,-0.1524 0,-0.4064 0.2667,-0.7366 0.2794,-0.3302 0.762,-0.4826 z m 1.993902,6.1214 0.8509,-1.397 q 0.0508,0.1651 0.0508,0.2667 0,0.381 -0.2159,0.6477 -0.2159,0.2667 -0.6858,0.4826 z m 4.9657,0.7112 1.1811,-0.254 0.7366,-3.8608 q 0.0635,-0.3302 0.1524,-0.6604 0.1016,-0.3429 0.2286,-0.6604 l -1.4732,2.413 0.6096,-3.302 0.5842,-0.127 q 0.0508,-0.0127 0.2032,-0.0508 0.1524,-0.0381 0.2667,-0.0762 0.1397,-0.0381 0.2413,-0.0635 0.1016,-0.0381 0.2667,-0.1016 l -0.4953,0.9525 q 0.1397,-0.127 0.2667,-0.1905 0.1397,-0.0635 0.3429,-0.1016 l 0.7874,-0.1651 0.2159,-1.2319 q -0.1778,0.0127 -0.3048,0.0381 -0.1143,0.0254 -0.2159,0.0762 -0.0889,0.0381 -0.1905,0.1143 -0.0889,0.0762 -0.2032,0.2032 -0.0254,0.0127 -0.0508,0.0381 -0.0127,0.0254 -0.0381,0.0508 l 0.1905,-0.9398 -2.0574,0.4318 q -0.2413,0.0508 -0.4318,0.127 -0.1905,0.0635 -0.4318,0.2032 0.0254,-0.0635 0.0381,-0.0889 0.0127,-0.0381 0.0254,-0.0635 l 0.127,-0.2667 q 0.0508,-0.1016 0.0889,-0.2032 0.0381,-0.1016 0.0762,-0.2667 -0.1524,0.0635 -0.3429,0.1143 -0.1778,0.0508 -0.3937,0.0889 l -2.0701,0.3937 -0.1651,1.2319 1.6764,-0.3429 -0.2286,1.016 q 0.1778,-0.127 0.3048,-0.2032 0.127,-0.0889 0.2413,-0.1397 0.1143,-0.0635 0.2286,-0.1016 0.1143,-0.0508 0.2667,-0.1016 l -1.0414,5.461 1.524,-2.2987 q -0.1524,0.3683 -0.254,0.6477 -0.0889,0.2667 -0.1397,0.4826 z m 4.1529,-2.8956 1.2319,-1.7526 q -0.127,0.4191 -0.2286,0.8382 -0.1016,0.4064 -0.1651,0.8128 l -0.5334,2.9083 1.2065,-0.254 -0.4318,0.7239 q 0.254,-0.0762 0.4445,-0.1143 0.1905,-0.0508 0.4445,-0.1016 l 2.4003,-0.4826 -0.4191,0.762 q 0.2159,-0.0635 0.4572,-0.127 0.254,-0.0635 0.4318,-0.1016 l 1.3335,-0.2794 0.2159,-1.27 -0.9525,0.2159 q -0.254,0.0635 -0.5715,0.1651 l -0.127,0.0508 0.4699,-0.7874 -2.6416,0.5334 0.0254,-0.127 q 0.0508,-0.2413 0.0762,-0.4191 0.0381,-0.1778 0.0762,-0.3175 0.0381,-0.1397 0.0762,-0.2667 0.0381,-0.1397 0.1016,-0.3048 l -0.5842,0.9271 -0.5461,0.1016 0.3175,-1.8669 1.5113,-0.2921 -0.4953,0.8001 q 0.508,-0.254 1.1049,-0.3683 l 0.127,-0.0254 1.2192,-0.254 0.1905,-1.1811 -1.0287,0.2159 q -0.1778,0.0381 -0.381,0.1016 -0.1905,0.0635 -0.4064,0.1524 l 0.4953,-0.8255 -2.1082,0.4191 0.254,-1.4097 2.8194,-0.5715 -0.5207,0.8636 q 0.2921,-0.1651 0.4699,-0.2413 0.1905,-0.0762 0.4064,-0.1143 l 0.6858,-0.1397 0.2032,-1.2192 q -0.127,0.0254 -0.2286,0.0508 -0.0889,0.0254 -0.1905,0.0635 -0.0889,0.0254 -0.2032,0.0762 -0.1143,0.0381 -0.2794,0.1143 l 0.1524,-0.7493 -2.9718,0.6096 0.3556,-0.6731 -2.4765,0.4826 z m 1.6256,-2.3749 0.2286,-1.2954 0.6731,-0.1524 z m 5.8039,5.1435 1.1811,-0.2032 0.5334,-2.7559 q 0.3683,-0.1016 0.635,-0.1397 0.2794,-0.0508 0.4191,-0.0508 0.1651,0 0.2667,0.0381 0.1016,0.0381 0.2032,0.1397 l -0.2667,0.4445 q 0.1905,-0.1143 0.3175,-0.1524 0.1397,-0.0381 0.2921,-0.0381 0.3048,0 0.4826,0.1778 0.1778,0.1778 0.1778,0.4826 0,0.1016 -0.0127,0.254 -0.0127,0.1397 -0.0381,0.2921 -0.0508,0.3302 -0.0762,0.5715 -0.0127,0.2413 -0.0127,0.381 0,0.1016 0,0.1651 0,0.0635 0.0254,0.2032 l 0.4953,-0.1143 0.5969,-1.0287 q 0.2286,-0.762 0.2286,-1.2446 0,-0.3302 -0.127,-0.5334 -0.1143,-0.2032 -0.4445,-0.381 0.6731,-0.4953 0.9652,-1.0287 0.3048,-0.5334 0.3048,-1.2192 0,-0.3683 -0.1016,-0.5969 -0.0889,-0.2413 -0.3429,-0.4826 l -0.2667,0.3937 q -0.2413,-0.9779 -1.0922,-0.9779 -0.1143,0 -0.2413,0.0127 -0.127,0.0127 -0.2667,0.0381 l -0.9906,0.2159 0.381,-0.6985 -2.7432,0.5207 -1.0414,5.6642 1.1684,-1.7399 z m 6.1976,-2.7813 -0.889,1.3462 q -0.1397,0.2921 -0.1905,0.4318 -0.0508,0.127 -0.0889,0.2413 -0.0762,0.2159 -0.1143,0.4318 -0.0381,0.2032 -0.0381,0.3683 0,0.0635 0,0.1143 0,0.0381 0.0127,0.127 l 1.1938,-0.2794 q -0.0381,-0.2032 -0.0381,-0.3048 0,-0.1016 0.0127,-0.254 0.0254,-0.1651 0.0762,-0.5715 0.0381,-0.3683 0.0635,-0.6731 0.0254,-0.3048 0.0254,-0.5588 0,-0.0635 -0.0127,-0.1651 0,-0.1143 -0.0127,-0.254 z m -3.7973,1.1811 -0.9906,1.6637 -0.0889,0.3683 0.635,-0.2159 z m -0.9525,-4.7625 1.1049,-0.2159 -1.4986,2.5019 z m 0.8255,0.4699 0.9906,-0.2413 q 0.1143,-0.0254 0.2159,-0.0381 0.1143,-0.0127 0.2159,-0.0127 0.4953,0 0.4953,0.6096 0,0.4445 -0.2794,0.7747 -0.2794,0.3302 -0.7239,0.4318 l -1.27,0.2667 z m 2.6289,0.2667 q 0.0635,0.1397 0.0762,0.2286 0.0254,0.0889 0.0254,0.2032 0,0.2921 -0.1524,0.5715 -0.1397,0.2794 -0.381,0.4572 -0.1397,0.1016 -0.2794,0.1651 -0.1397,0.0508 -0.4064,0.1397 z"
       id="text1"
       aria-label="MARCSTER" />
  </g>
</svg>
