<?xml version="1.0" encoding="UTF-8" standalone="no"?>
<!-- Created with Inkscape (http://www.inkscape.org/) -->

<svg
   width="65.549919mm"
   height="26.122873mm"
   viewBox="0 0 65.549919 26.122873"
   version="1.1"
   id="svg1"
   xmlns="http://www.w3.org/2000/svg"
   xmlns:svg="http://www.w3.org/2000/svg">
  <defs
     id="defs1">
    <filter
       style="color-interpolation-filters:sRGB"
       id="filter32-4"
       x="-0.17899347"
       y="-0.97705833"
       width="1.3579869"
       height="2.9541167">
      <feFlood
         result="flood"
         in="SourceGraphic"
         flood-opacity="1.000000"
         flood-color="rgb(17,152,255)"
         id="feFlood31-8" />
      <feGaussianBlur
         result="blur"
         in="SourceGraphic"
         stdDeviation="1.800000"
         id="feGaussianBlur31-8" />
      <feOffset
         result="offset"
         in="blur"
         dx="0.000000"
         dy="0.000000"
         id="feOffset31-2" />
      <feComposite
         result="comp1"
         operator="in"
         in="flood"
         in2="offset"
         id="feComposite31-4" />
      <feComposite
         result="fbSourceGraphic"
         operator="over"
         in="SourceGraphic"
         in2="comp1"
         id="feComposite32-5" />
      <feColorMatrix
         result="fbSourceGraphicAlpha"
         in="fbSourceGraphic"
         values="0 0 0 -1 0 0 0 0 -1 0 0 0 0 -1 0 0 0 0 1 0"
         id="feColorMatrix32-5" />
      <feFlood
         id="feFlood32-1"
         result="flood"
         in="fbSourceGraphic"
         flood-opacity="1.000000"
         flood-color="rgb(17,152,255)" />
      <feGaussianBlur
         id="feGaussianBlur32-7"
         result="blur"
         in="fbSourceGraphic"
         stdDeviation="1.800000" />
      <feOffset
         id="feOffset32-1"
         result="offset"
         in="blur"
         dx="0.000000"
         dy="0.000000" />
      <feComposite
         id="feComposite33-1"
         result="comp1"
         operator="in"
         in="flood"
         in2="offset" />
      <feComposite
         id="feComposite34-5"
         result="comp2"
         operator="over"
         in="fbSourceGraphic"
         in2="comp1" />
    </filter>
  </defs>
  <g
     id="layer1"
     transform="translate(-81.526062,-122.62954)">
    <path
       style="font-size:12.7px;font-family:'Bauhaus 93';-inkscape-font-specification:'Bauhaus 93, ';fill:#ffffff;stroke-width:0.264583;filter:url(#filter32-4)"
       d="m 90.166063,139.94499 v -6.10195 q 0,-1.13482 0.68833,-1.85415 0.68833,-0.71934 1.785937,-0.71934 1.302247,0 2.002979,1.19683 0.427881,-0.64492 0.917773,-0.91777 0.489893,-0.27906 1.209229,-0.27906 1.141015,0 1.74873,0.71934 0.607715,0.71933 0.607715,2.07119 v 5.88491 H 96.60908 v -5.50664 q 0,-0.40928 -0.06821,-0.5395 -0.06201,-0.13643 -0.26045,-0.13643 -0.37207,0 -0.37207,0.63252 v 5.55005 h -2.517676 v -5.50664 q 0,-0.40307 -0.06821,-0.5395 -0.06821,-0.13643 -0.26665,-0.13643 -0.37207,0 -0.37207,0.67593 v 5.50664 z m 13.747997,-2.31924 v 2.39986 q -0.28525,0.0496 -0.5209,0.0496 -1.39526,0 -2.32544,-0.91778 -0.93017,-0.91777 -0.93017,-2.30063 0,-1.34566 0.93637,-2.28203 0.94258,-0.93638 2.28824,-0.93638 1.50068,0 2.36264,0.88057 0.86817,0.87436 0.86817,2.39365 v 3.03237 h -2.31924 v -2.86494 q 0,-0.48989 -0.24185,-0.78135 -0.23564,-0.29145 -0.63872,-0.29145 -0.36587,0 -0.63252,0.26665 -0.26665,0.26665 -0.26665,0.63252 0,0.38447 0.24185,0.63252 0.24184,0.24804 0.61391,0.24804 0.30386,0 0.56431,-0.16123 z m 7.4228,-3.92534 v 2.48047 q -0.24184,-0.13642 -0.44028,-0.13642 -0.63252,0 -0.63252,0.96738 v 2.93315 h -2.31924 v -3.37964 q 0,-1.33945 0.73174,-2.1332 0.73174,-0.79995 1.95337,-0.79995 0.27285,0 0.70693,0.0682 z m 4.47725,3.39824 2.30063,-0.0868 q -0.0992,1.33945 -0.99839,2.20141 -0.89917,0.86197 -2.18901,0.86197 -1.36426,0 -2.30684,-0.94878 -0.93637,-0.94878 -0.93637,-2.32544 0,-1.30845 0.94878,-2.23863 0.94878,-0.93017 2.27583,-0.93017 1.15962,0 2.04638,0.73174 0.88677,0.73174 1.10381,1.86655 l -2.35024,0.0868 q -0.30386,-0.39688 -0.76895,-0.39688 -0.39687,0 -0.65112,0.26045 -0.25425,0.26045 -0.25425,0.65733 0,0.40307 0.26665,0.67592 0.27285,0.27285 0.67593,0.27285 0.58911,0 0.83716,-0.68833 z m 7.18716,-3.24941 v 2.44326 q -0.48989,0 -0.67593,0.18604 -0.17983,0.17983 -0.22944,0.71933 -0.16123,1.79214 -1.38907,2.53008 -0.65112,0.38447 -1.84794,0.38447 h -0.32247 v -2.45566 h 0.10542 q 0.55811,0 0.79375,-0.22944 0.24185,-0.23565 0.27906,-0.81856 0.0496,-0.94878 0.17363,-1.33325 0.13022,-0.38447 0.5209,-0.76274 0.68213,-0.66353 1.89136,-0.66353 z m 2.82153,-2.36885 v 2.36885 h 1.0418 v 2.44946 h -1.0418 q 0,0.73794 0.22944,1.017 0.23565,0.27905 0.85577,0.27905 v 2.43706 q -0.17984,0.006 -0.26665,0.006 -0.78755,0 -1.48829,-0.36587 -0.69453,-0.36587 -1.11621,-0.99219 -0.5333,-0.79995 -0.5333,-2.1208 v -5.07876 z m 8.25996,5.74849 h -3.51606 q -0.0806,-0.26665 -0.0806,-0.48989 0,-0.31006 0.11162,-0.60772 h 1.17823 q -0.12403,-0.68833 -0.77515,-0.68833 -0.43408,0 -0.70693,0.37207 -0.27286,0.36587 -0.27286,0.94258 0,0.60151 0.26045,0.97358 0.26665,0.37207 0.69453,0.37207 0.34727,0 0.66973,-0.34726 l 1.32085,1.5875 q -0.92397,0.72554 -2.05259,0.72554 -1.37666,0 -2.31303,-0.92398 -0.93638,-0.92397 -0.93638,-2.28823 0,-1.35806 0.94258,-2.29444 0.94878,-0.93637 2.32544,-0.93637 1.34565,0 2.25722,0.91777 0.91778,0.91157 0.91778,2.25103 0,0.13642 -0.0248,0.43408 z m 4.35322,-3.52847 v 2.48047 q -0.24184,-0.13642 -0.44028,-0.13642 -0.63252,0 -0.63252,0.96738 v 2.93315 h -2.31924 v -3.37964 q 0,-1.33945 0.73174,-2.1332 0.73174,-0.79995 1.95337,-0.79995 0.27285,0 0.70693,0.0682 z"
       id="text1"
       aria-label="Marcster" />
  </g>
</svg>
