<?xml version="1.0" encoding="UTF-8" standalone="no"?>
<svg
   viewBox="0 0 7.68 7.68"
   width="24"
   height="24"
   version="1.1"
   id="svg22"
   xmlns:xlink="http://www.w3.org/1999/xlink"
   xmlns="http://www.w3.org/2000/svg"
   xmlns:svg="http://www.w3.org/2000/svg">
  <defs
     id="defs22" />
  <linearGradient
     id="b"
     gradientUnits="userSpaceOnUse"
     x1="580.92603"
     x2="305.32199"
     y1="321.68701"
     y2="421.99899"
     gradientTransform="matrix(0.01015054,0,0,0.00997196,-0.30279092,-0.14878108)">
    <stop
       offset=".337"
       stop-color="#f4aa1c"
       id="stop1" />
    <stop
       offset=".847"
       stop-color="#ed8722"
       id="stop2" />
  </linearGradient>
  <linearGradient
     id="a">
    <stop
       offset=".006"
       stop-color="#ec7e23"
       id="stop3" />
    <stop
       offset=".251"
       stop-color="#f09220"
       id="stop4" />
    <stop
       offset=".779"
       stop-color="#f09220"
       id="stop5" />
    <stop
       offset=".994"
       stop-color="#f19c1f"
       id="stop6" />
  </linearGradient>
  <linearGradient
     id="c"
     gradientUnits="userSpaceOnUse"
     x1="525.59198"
     x2="525.59198"
     xlink:href="#a"
     y1="758.34698"
     y2="202.03799"
     gradientTransform="matrix(0.01015054,0,0,0.00997196,-0.30279092,-0.14878108)" />
  <linearGradient
     id="d"
     gradientUnits="userSpaceOnUse"
     x1="139.851"
     x2="422.51099"
     y1="688.29602"
     y2="451.116"
     gradientTransform="matrix(0.01015054,0,0,0.00997196,-0.30279092,-0.14878108)">
    <stop
       offset=".215"
       stop-color="#e66124"
       id="stop7" />
    <stop
       offset=".54"
       stop-color="#e86c24"
       id="stop8" />
    <stop
       offset=".816"
       stop-color="#ed8722"
       id="stop9" />
  </linearGradient>
  <linearGradient
     id="e"
     gradientUnits="userSpaceOnUse"
     x1="423.33801"
     x2="625.927"
     y1="341.55801"
     y2="87.146004"
     gradientTransform="matrix(0.01015054,0,0,0.00997196,-0.30279092,-0.14878108)">
    <stop
       offset=".515"
       stop-color="#f4aa1c"
       id="stop10" />
    <stop
       offset=".859"
       stop-color="#fcc90a"
       id="stop11" />
  </linearGradient>
  <linearGradient
     id="f"
     gradientUnits="userSpaceOnUse"
     x1="279.98401"
     x2="279.98401"
     xlink:href="#a"
     y1="176.07899"
     y2="14.485"
     gradientTransform="matrix(0.01015054,0,0,0.00997196,-0.30279092,-0.14878108)" />
  <linearGradient
     id="g"
     gradientUnits="userSpaceOnUse"
     x1="192.11501"
     x2="192.11501"
     y1="610.07898"
     y2="341.509"
     gradientTransform="matrix(0.01015054,0,0,0.00997196,-0.30279092,-0.14878108)">
    <stop
       offset=".307"
       stop-color="#e76524"
       id="stop12" />
    <stop
       offset=".626"
       stop-color="#df541a"
       id="stop13" />
  </linearGradient>
  <linearGradient
     id="h"
     gradientUnits="userSpaceOnUse"
     x1="398.73401"
     x2="398.73401"
     y1="609.76703"
     y2="408.44501"
     gradientTransform="matrix(0.01015054,0,0,0.00997196,-0.30279092,-0.14878108)">
    <stop
       offset="0"
       stop-color="#f19c1f"
       id="stop14" />
    <stop
       offset=".294"
       stop-color="#e8721b"
       id="stop15" />
  </linearGradient>
  <circle
     cx="370.17001"
     cy="385.07999"
     fill="#ffffff"
     r="400"
     id="circle15" />
  <path
     d="m 3.3996191,3.0016579 c 0.06882,0 0.151344,0.04059 0.192657,0.09463 l 1.293788,1.906538 0.509252,-2.501465 h -2.986694 v 0.486831 h 0.990997 z"
     fill="url(#b)"
     id="path16"
     style="fill:url(#b);stroke-width:0.0100608" />
  <path
     d="m 7.1157311,1.8658519 c 0.288986,0.797757 0.16515,1.690246 -0.316595,2.285173 -0.192657,0.229854 -0.495448,0.459707 -0.853356,0.635513 l -0.220165,1.02761 c -0.01381,0.06761 -0.08263,0.121658 -0.151446,0.121658 h -1.046013 c -0.06882,0 -0.151345,-0.04059 -0.192657,-0.09463 l -1.279983,-1.906538 -0.09633,0.446245 -0.302791,1.446731 c 0,0.05415 -0.06882,0.108196 -0.137641,0.108196 h -0.123938 c 0,0.878928 1.183654,1.865952 3.151844,1.325073 1.266281,-0.635517 2.13334,-1.933566 2.13334,-3.420883 -0.0138,-0.716585 -0.206462,-1.392683 -0.564269,-1.974148 z"
     fill="url(#c)"
     id="path17"
     style="fill:url(#c);stroke-width:0.0100608" />
  <path
     d="M 7.6293944e-8,4.4079029 C 7.6293944e-8,2.9746339 1.0047001,2.5013649 2.0645181,2.5013649 h 0.357807 v 0.486831 h -0.05502 c -0.06882,0 -0.137641,0.05405 -0.151345,0.121658 l -0.04131,0.148681 -0.523058,2.555613 c -0.0137,0.06761 0.02751,0.121658 0.09633,0.121658 h 0.646894 c 0,0.878928 1.183654,1.865952 3.151844,1.325073 -0.536761,0.270439 -1.142342,0.419121 -1.789236,0.419121 C 1.5139531,7.6799999 7.6293944e-8,5.8681959 7.6293944e-8,4.4079029 Z"
     fill="url(#d)"
     id="path18"
     style="fill:url(#d);stroke-width:0.0100608" />
  <path
     d="m 5.9457801,4.7865379 c 0.357908,-0.162344 0.660699,-0.392197 0.853356,-0.635513 0.495448,-0.594927 0.605581,-1.487416 0.316595,-2.285173 -0.578073,-0.93297598 -1.541562,-1.62253598 -2.683904,-1.81180398 -0.77073,-0.054049996294 -1.50025,0.148682 -1.885564,0.648975 -0.178954,0.229853 -0.206462,0.54087898 -0.123938,0.90595198 h 3.041812 c 0.06882,0 0.151345,0.04059 0.192657,0.09463 l 0.646894,0.987123 c 0.04131,0.05405 0.05502,0.148682 0.04131,0.216292 z"
     fill="url(#e)"
     id="path19"
     style="fill:url(#e);stroke-width:0.0100608" />
  <path
     d="m 4.4318271,0.05404792 c -0.77073,-0.054049996294 -1.50025,0.148682 -1.885564,0.648975 -0.178954,0.229853 -0.206462,0.54087898 -0.123938,0.90595198 H 0.77073008 c -0.178852,0 -0.151344,-0.06761 -0.0137,-0.243416 C 1.4727451,0.52731692 2.5462661,-7.6293945e-8 3.7574281,-7.6293945e-8 c 0.23397,0 0.454237,0.01345999629395 0.674402,0.05404999629395 z"
     fill="url(#f)"
     id="path20"
     style="fill:url(#f);stroke-width:0.0100608" />
  <path
     d="m 1.6515941,5.8141479 0.523058,-2.555613 h -0.385416 c -0.06882,0 -0.137642,0.05415 -0.151345,0.121758 l -0.523057,2.433855 c -0.0137,0.06761 0.02751,0.121658 0.09633,0.121658 h 0.523058 c -0.05512,0 -0.09633,-0.05405 -0.08263,-0.121658 z"
     fill="url(#g)"
     id="path21"
     style="fill:url(#g);stroke-width:0.0100608" />
  <path
     d="m 4.1152321,5.9358059 h 0.412924 c -0.06882,0 -0.151345,-0.04059 -0.192657,-0.09463 l -1.279983,-1.906538 -0.09633,0.446245 0.949684,1.446731 c 0.04121,0.05415 0.13754,0.108196 0.206361,0.108196 z"
     fill="url(#h)"
     id="path22"
     style="fill:url(#h);stroke-width:0.0100608" />
</svg>
