<?xml version="1.0" encoding="UTF-8" standalone="no"?>
<!-- Created with Inkscape (http://www.inkscape.org/) -->

<svg
   width="6.3499837mm"
   height="6.3499923mm"
   viewBox="0 0 6.3499837 6.3499923"
   version="1.1"
   id="svg1"
   xmlns="http://www.w3.org/2000/svg"
   xmlns:svg="http://www.w3.org/2000/svg">
  <defs
     id="defs1" />
  <g
     id="layer1"
     transform="translate(-136.52506,-107.95)">
    <path
       d="m 141.26552,111.42909 c -0.45243,0.1451 -0.92242,0.0284 -0.91892,-0.58393 0,-0.93432 2.17105,-1.71645 2.47269,-2.53043 0.0737,-0.20172 0.0806,-0.37159 -0.0175,-0.36452 -0.0701,0.004 -0.0136,0.10621 -0.16834,0.25834 -0.89789,0.90954 -2.40603,0.90601 -3.56347,1.42979 -0.75759,0.34329 -2.98123,1.39792 -2.46917,3.75139 0.0245,0.11329 0.0912,0.48485 0.15785,0.48485 0.0771,0 0.0771,-0.22295 0.0771,-0.49193 -0.0175,-1.40146 1.6274,-1.79076 2.16403,-2.70737 0.0631,-0.10969 0.17538,-0.26189 0.19993,-0.19111 0.0136,0.0355 0.005,0.0849 -0.0175,0.18403 -0.16835,0.75382 -0.947,1.23512 -0.72603,1.77307 0.2876,0.69719 1.11184,0.17695 1.36786,-0.27251 0.0667,-0.12387 0.10523,-0.20172 0.15089,-0.18757 0.035,0.0107 0.0316,0.15217 0.0106,0.27958 -0.13683,0.81045 -0.31916,1.26345 -0.90839,1.72706 -0.1894,0.14863 -0.48401,0.17695 -0.44544,0.2902 0.0106,0.0284 0.13683,0.0247 0.2385,0.0142 1.56428,-0.10259 2.87253,-1.96064 3.21974,-3.17807 0.0351,-0.0849 0.0457,-0.16633 0.0106,-0.19465 -0.0457,-0.0355 -0.11567,0.0461 -0.18589,0.10969 -0.17889,0.16279 -0.4244,0.32913 -0.64887,0.3999 z"
       id="path2"
       style="fill:#00a6d6;fill-opacity:1;stroke-width:0.352316" />
  </g>
</svg>
